{
    "asset" : {
        "generator" : "Khronos glTF Blender I/O v0.9.24",
        "version" : "2.0"
    },
    "scene" : 0,
    "scenes" : [
        {
            "name" : "Scene",
            "nodes" : [
                0,
                1,
                2,
                3
            ]
        }
    ],
    "nodes" : [
        {
            "mesh" : 0,
            "name" : "Avatar",
            "scale" : [
                0.24406494200229645,
                0.24406494200229645,
                0.24406494200229645
            ],
            "translation" : [
                0,
                -0.07122918963432312,
                -0.015263397246599197
            ]
        },
        {
            "name" : "Light",
            "rotation" : [
                0.16907575726509094,
                0.7558803558349609,
                -0.27217137813568115,
                0.570947527885437
            ],
            "translation" : [
                4.076245307922363,
                5.903861999511719,
                -1.0054539442062378
            ]
        },
        {
            "name" : "Camera",
            "rotation" : [
                0.483536034822464,
                0.33687159419059753,
                -0.20870360732078552,
                0.7804827094078064
            ],
            "translation" : [
                6.041687965393066,
                5.587518692016602,
                7.86700963973999
            ]
        },
        {
            "name" : "Reference",
            "rotation" : [
                0.5,
                0.5,
                -0.5,
                0.4999999701976776
            ],
            "translation" : [
                -1,
                0,
                0
            ]
        }
    ],
    "materials" : [
        {
            "doubleSided" : true,
            "emissiveFactor" : [
                1,
                1,
                1
            ],
            "emissiveTexture" : {
                "index" : 0,
                "texCoord" : 0
            },
            "name" : "Material.001",
            "pbrMetallicRoughness" : {}
        }
    ],
    "meshes" : [
        {
            "name" : "Cube",
            "primitives" : [
                {
                    "attributes" : {
                        "POSITION" : 0,
                        "NORMAL" : 1,
                        "TEXCOORD_0" : 2
                    },
                    "indices" : 3,
                    "material" : 0
                }
            ]
        }
    ],
    "textures" : [
        {
            "source" : 0
        }
    ],
    "images" : [
        {
            "bufferView" : 4,
            "mimeType" : "image/jpeg",
            "name" : "avatar256"
        }
    ],
    "accessors" : [
        {
            "bufferView" : 0,
            "componentType" : 5126,
            "count" : 2175,
            "max" : [
                0.38567984104156494,
                2.340350389480591,
                2.10267972946167
            ],
            "min" : [
                -0.6908625364303589,
                -1.755738615989685,
                -1.9841201305389404
            ],
            "type" : "VEC3"
        },
        {
            "bufferView" : 1,
            "componentType" : 5126,
            "count" : 2175,
            "type" : "VEC3"
        },
        {
            "bufferView" : 2,
            "componentType" : 5126,
            "count" : 2175,
            "type" : "VEC2"
        },
        {
            "bufferView" : 3,
            "componentType" : 5123,
            "count" : 3213,
            "type" : "SCALAR"
        }
    ],
    "bufferViews" : [
        {
            "buffer" : 0,
            "byteLength" : 26100,
            "byteOffset" : 0
        },
        {
            "buffer" : 0,
            "byteLength" : 26100,
            "byteOffset" : 26100
        },
        {
            "buffer" : 0,
            "byteLength" : 17400,
            "byteOffset" : 52200
        },
        {
            "buffer" : 0,
            "byteLength" : 6426,
            "byteOffset" : 69600
        },
        {
            "buffer" : 0,
            "byteLength" : 13116,
            "byteOffset" : 76028
        }
    ],
    "buffers" : [
        {
            "byteLength" : 89144,
            "uri" : "data:application/octet-stream;base64,"
        }
    ]
}
