<svg class="intro__nl" viewBox="0 0 168 64" xmlns="http://www.w3.org/2000/svg">
    <path d="M-656 56V0h48v8h8v16h-8v8h8v16h-8v8h-48zm16-32h24V8h-24v16zm0 24h24V32h-24v16zm56 8v-8h-8V24h8v-8h40v8h8v24h-8v8h-40zm8-8h24V24h-24v24zm56 8v-8h-8V0h16v16h32v8h8v24h-8v8h-40zm8-8h24V24h-24v24zm112 8V0h56v8h-40v16h32v8h-32v24h-16zm72 0v-8h-8v-8h8v-8h32v-8h-32v-8h40v8h8v32h-48zm8-8h24v-8h-24v8zm48 8V16h48v8h8v32h-16V24h-24v32h-16zm72 8v-8h32v-8h-32v-8h-8V24h8v-8h48v40h-8v8h-40zm8-24h24V24h-24v16zm56 16v-8h-8V24h8v-8h40v8h8v16h-40v8h32v8h-40zm8-24h24v-8h-24v8zm72-8h8v8h-8v24h-16V16h16v8zm32-8v8h-24v-8h24zM0 56V40h16v16H0zm48 0V16h48v8h8v32H88V24H64v32H48zm72 0v-8h16V8h-8V0h24v48h16v8h-48z" fill="#FFF" fill-rule="evenodd"/>
</svg>
